# xmcd
#
# Track frame offsets:
#	150
#	16692
#	31043
#	45066
#	67722
#	85168
#	101442
#	111275
#	131178
#	149194
#	160335
#	168430
#	184665
#	203718
#	228248
#	240222
#	265387
#	288705
#
# Disc length: 4268 seconds
#
# Revision: 0
# Processed by: cddbd v1.4PL0 Copyright (c) Steve Scherf et al.
# Submitted via: audiograbber 1.80
#
DISCID=ea10aa12
DTITLE=Tracy Chapman - Let It Rain
DYEAR=1900
DGENRE=
TTITLE0=Let It Rain
TTITLE1=Another Sun
TTITLE2=You*re The One
TTITLE3=In The Dark
TTITLE4=Almost
TTITLE5=Hard Wired
TTITLE6=Say Hallelujah
TTITLE7=Broken
TTITLE8=Happy
TTITLE9=Goodbay
TTITLE10=Oover In Love (Instrumental)
TTITLE11=I Am Yours
TTITLE12=Crossroads (Bonus Track)
TTITLE13=Bridges (Bonus Track)
TTITLE14=Talkin About The Revolution (Bonus Track)
TTITLE15=New Beginning (Bonus Track)
TTITLE16=Al This Point In My Life (Bonus Track)
TTITLE17=Matters Of The Heart (Bonus Track)
EXTD=
EXTT0=
EXTT1=
EXTT2=
EXTT3=
EXTT4=
EXTT5=
EXTT6=
EXTT7=
EXTT8=
EXTT9=
EXTT10=
EXTT11=
EXTT12=
EXTT13=
EXTT14=
EXTT15=
EXTT16=
EXTT17=
PLAYORDER=
